<svg width="740" height="393" viewBox="0 0 740 393" fill="none" xmlns="http://www.w3.org/2000/svg">
<path d="M660.161 135.174L661.348 115.158L694.595 104.132V131.442L660.161 135.174Z" fill="#E9E9E9" stroke="#212629" stroke-width="0.5" stroke-miterlimit="10"/>
<path d="M694.599 431L688.323 129.067L655.924 136.022L646.086 431H694.599Z" fill="#E9E9E9" stroke="#212629" stroke-width="0.5" stroke-miterlimit="10"/>
<path d="M680.859 213.541L656.263 217.612C656.263 217.612 633.025 235.592 626.409 270.365L613.009 431H645.916L680.859 213.541Z" fill="#E9E9E9" stroke="#212629" stroke-width="0.5" stroke-miterlimit="10"/>
<path d="M659.486 217.612L680.689 214.049L680.859 213.541L656.263 217.612C656.263 217.612 633.025 235.592 626.409 270.365L613.009 431H616.232L629.632 270.365C636.247 235.592 659.486 217.612 659.486 217.612Z" fill="#E9E9E9" stroke="#212629" stroke-width="0.5" stroke-miterlimit="10"/>
<path d="M678.314 213.541H680.859L687.644 431H643.541L646.594 275.623C646.425 275.623 650.326 231.012 678.314 213.541Z" fill="#E9E9E9" stroke="#212629" stroke-width="0.5" stroke-miterlimit="10"/>
<path d="M680.859 213.541L690.188 431H646.086L649.139 275.623C649.139 275.623 652.871 231.012 680.859 213.541Z" fill="#E9E9E9" stroke="#212629" stroke-width="0.5" stroke-miterlimit="10"/>
<path d="M688.325 129.067L719.536 133.478L738.874 429.474L694.601 431L688.325 129.067Z" fill="#E9E9E9" stroke="#212629" stroke-width="0.5" stroke-miterlimit="10"/>
<path d="M694.598 104.132L708.507 107.186L710.203 132.12L694.598 129.915V104.132Z" fill="#E9E9E9" stroke="#212629" stroke-width="0.5" stroke-miterlimit="10"/>
<path d="M720.718 214.219C720.718 214.897 720.039 215.576 719.361 215.576C718.682 215.576 718.004 214.897 718.004 214.219C718.004 213.54 718.682 212.862 719.361 212.862C720.209 212.862 720.718 213.54 720.718 214.219Z" fill="#E9E9E9" stroke="#212629" stroke-width="0.5" stroke-miterlimit="10"/>
<path d="M724.45 324.475C724.45 325.154 723.772 325.832 723.093 325.832C722.415 325.832 721.736 325.154 721.736 324.475C721.736 323.797 722.415 323.118 723.093 323.118C723.941 323.118 724.45 323.797 724.45 324.475Z" fill="#E9E9E9" stroke="#212629" stroke-width="0.5" stroke-miterlimit="10"/>
<path d="M678.483 324.475C678.483 325.154 677.804 325.832 677.126 325.832C676.447 325.832 675.769 325.154 675.769 324.475C675.769 323.797 676.447 323.118 677.126 323.118C677.974 323.118 678.652 323.797 678.483 324.475Z" fill="#E9E9E9" stroke="#212629" stroke-width="0.5" stroke-miterlimit="10"/>
<path d="M699.86 340.251C699.86 340.929 699.182 341.608 698.503 341.608C697.825 341.608 697.146 340.929 697.146 340.251C697.146 339.572 697.825 338.894 698.503 338.894C699.352 338.894 699.86 339.572 699.86 340.251Z" fill="#E9E9E9" stroke="#212629" stroke-width="0.5" stroke-miterlimit="10"/>
<path d="M729.031 376.72C729.031 377.399 728.353 378.077 727.674 378.077C726.996 378.077 726.317 377.399 726.317 376.72C726.317 376.042 726.996 375.363 727.674 375.363C728.522 375.363 729.031 376.042 729.031 376.72Z" fill="#E9E9E9" stroke="#212629" stroke-width="0.5" stroke-miterlimit="10"/>
<path d="M724.624 251.197C724.624 251.876 723.946 252.554 723.267 252.554C722.589 252.554 721.91 251.876 721.91 251.197C721.91 250.519 722.589 249.84 723.267 249.84C724.115 249.84 724.624 250.519 724.624 251.197Z" fill="#E9E9E9" stroke="#212629" stroke-width="0.5" stroke-miterlimit="10"/>
<path d="M695.954 152.815C695.954 153.494 695.276 154.172 694.597 154.172C693.919 154.172 693.24 153.494 693.24 152.815C693.24 152.137 693.919 151.458 694.597 151.458C695.276 151.458 695.954 152.137 695.954 152.815Z" fill="#E9E9E9" stroke="#212629" stroke-width="0.5" stroke-miterlimit="10"/>
<path d="M676.11 154.171C676.11 154.85 675.431 155.528 674.752 155.528C674.074 155.528 673.396 154.85 673.396 154.171C673.396 153.493 674.074 152.814 674.752 152.814C675.601 152.814 676.11 153.493 676.11 154.171Z" fill="#E9E9E9" stroke="#212629" stroke-width="0.5" stroke-miterlimit="10"/>
<path d="M697.144 152.815C697.144 153.494 696.465 154.172 695.787 154.172C695.108 154.172 694.43 153.494 694.43 152.815C694.43 152.137 695.108 151.458 695.787 151.458C696.635 151.458 697.313 152.137 697.144 152.815Z" fill="#E9E9E9" stroke="#212629" stroke-width="0.5" stroke-miterlimit="10"/>
<path d="M674.753 154.171C674.753 154.85 674.075 155.528 673.396 155.528C672.718 155.528 672.039 154.85 672.039 154.171C672.039 153.493 672.718 152.814 673.396 152.814C674.244 152.814 674.923 153.493 674.753 154.171Z" fill="#E9E9E9" stroke="#212629" stroke-width="0.5" stroke-miterlimit="10"/>
<path d="M716.477 214.219C716.477 214.897 715.798 215.576 715.12 215.576C714.441 215.576 713.763 214.897 713.763 214.219C713.763 213.54 714.441 212.862 715.12 212.862C715.798 212.862 716.477 213.54 716.477 214.219Z" fill="#E9E9E9" stroke="#212629" stroke-width="0.5" stroke-miterlimit="10"/>
<path d="M723.267 251.197C723.267 251.876 722.588 252.554 721.91 252.554C721.231 252.554 720.553 251.876 720.553 251.197C720.553 250.519 721.231 249.84 721.91 249.84C722.758 249.84 723.267 250.519 723.267 251.197Z" fill="#E9E9E9" stroke="#212629" stroke-width="0.5" stroke-miterlimit="10"/>
<path d="M724.45 290.381C724.45 291.059 723.772 291.738 723.093 291.738C722.415 291.738 721.736 291.059 721.736 290.381C721.736 289.702 722.415 289.024 723.093 289.024C723.941 289.024 724.45 289.702 724.45 290.381Z" fill="#E9E9E9" stroke="#212629" stroke-width="0.5" stroke-miterlimit="10"/>
<path d="M697.144 289.024C697.144 289.702 696.465 290.381 695.787 290.381C695.108 290.381 694.43 289.702 694.43 289.024C694.43 288.345 695.108 287.667 695.787 287.667C696.635 287.667 697.313 288.345 697.144 289.024Z" fill="#E9E9E9" stroke="#212629" stroke-width="0.5" stroke-miterlimit="10"/>
<path d="M699.86 289.024C699.86 289.702 699.182 290.381 698.503 290.381C697.825 290.381 697.146 289.702 697.146 289.024C697.146 288.345 697.825 287.667 698.503 287.667C699.352 287.667 699.86 288.345 699.86 289.024Z" fill="#E9E9E9" stroke="#212629" stroke-width="0.5" stroke-miterlimit="10"/>
<path d="M730.389 361.284C730.389 361.963 729.71 362.641 729.032 362.641C728.353 362.641 727.675 361.963 727.675 361.284C727.675 360.606 728.353 359.927 729.032 359.927C729.71 359.927 730.389 360.606 730.389 361.284Z" fill="#E9E9E9" stroke="#212629" stroke-width="0.5" stroke-miterlimit="10"/>
<path d="M679.84 289.024C679.84 289.702 679.161 290.381 678.483 290.381C677.804 290.381 677.126 289.702 677.126 289.024C677.126 288.345 677.804 287.667 678.483 287.667C679.331 287.667 679.84 288.345 679.84 289.024Z" fill="#E9E9E9" stroke="#212629" stroke-width="0.5" stroke-miterlimit="10"/>
<path d="M711.564 289.024C711.564 289.702 710.885 290.381 710.207 290.381C709.528 290.381 708.85 289.702 708.85 289.024C708.85 288.345 709.528 287.667 710.207 287.667C710.885 287.667 711.564 288.345 711.564 289.024Z" fill="#E9E9E9" stroke="#212629" stroke-width="0.5" stroke-miterlimit="10"/>
<path d="M666.949 289.024C666.949 289.702 666.271 290.381 665.592 290.381C664.914 290.381 664.235 289.702 664.235 289.024C664.235 288.345 664.914 287.667 665.592 287.667C666.271 287.667 666.949 288.345 666.949 289.024Z" fill="#E9E9E9" stroke="#212629" stroke-width="0.5" stroke-miterlimit="10"/>
<path d="M711.897 252.215C711.897 252.894 711.218 253.572 710.54 253.572C709.861 253.572 709.183 252.894 709.183 252.215C709.183 251.537 709.861 250.858 710.54 250.858C711.388 250.858 711.897 251.537 711.897 252.215Z" fill="#E9E9E9" stroke="#212629" stroke-width="0.5" stroke-miterlimit="10"/>
<path d="M666.949 252.215C666.949 252.894 666.271 253.572 665.592 253.572C664.914 253.572 664.235 252.894 664.235 252.215C664.235 251.537 664.914 250.858 665.592 250.858C666.271 250.858 666.949 251.537 666.949 252.215Z" fill="#E9E9E9" stroke="#212629" stroke-width="0.5" stroke-miterlimit="10"/>
<path d="M688.325 129.067L691.378 129.407L700.369 430.831L694.601 431L688.325 129.067Z" fill="#E9E9E9" stroke="#212629" stroke-width="0.5" stroke-miterlimit="10"/>
<path d="M688.325 129.067L685.95 129.407L692.057 431H694.601L688.325 129.067Z" fill="#E9E9E9" stroke="#212629" stroke-width="0.5" stroke-miterlimit="10"/>
<path d="M716.481 132.969L735.479 429.134L738.872 429.473L719.535 133.478L716.481 132.969Z" fill="#E9E9E9" stroke="#212629" stroke-width="0.5" stroke-miterlimit="10"/>
<path d="M200.654 81.742L195.396 59.3515L189.628 57.6553L188.78 79.3673L200.654 81.742Z" fill="#E9E9E9" stroke="#212629" stroke-width="0.5" stroke-miterlimit="10"/>
<path d="M189.625 57.6553L148.236 63.2529L141.451 85.4738L188.777 79.3673L189.625 57.6553Z" fill="#E9E9E9" stroke="#212629" stroke-width="0.5" stroke-miterlimit="10"/>
<path d="M188.777 399.62L186.063 78.8584L204.892 82.5902L215.069 399.111L188.777 399.62Z" fill="#E9E9E9" stroke="#212629" stroke-width="0.5" stroke-miterlimit="10"/>
<path d="M186.063 78.8584L137.89 85.9827V398.432L188.777 399.62L186.063 78.8584Z" fill="#E9E9E9" stroke="#212629" stroke-width="0.5" stroke-miterlimit="10"/>
<path d="M137.89 219.647L186.742 158.243L208.963 210.996L212.525 317.351L188.777 399.619L137.89 313.45V219.647Z" fill="#E9E9E9" stroke="#212629" stroke-width="0.5" stroke-miterlimit="10"/>
<path d="M186.742 158.243L188.777 399.619L137.89 313.45V219.647L186.742 158.243Z" fill="#E9E9E9" stroke="#212629" stroke-width="0.5" stroke-miterlimit="10"/>
<path d="M148.235 63.2527L158.243 53.0752L183.178 48.3257L189.624 57.6551L148.235 63.2527Z" fill="#E9E9E9" stroke="#212629" stroke-width="0.5" stroke-miterlimit="10"/>
<path d="M195.391 59.3513L183.178 48.3257L189.623 57.6551L195.391 59.3513Z" fill="#E9E9E9" stroke="#212629" stroke-width="0.5" stroke-miterlimit="10"/>
<path d="M186.401 114.479L207.605 166.385L208.113 185.044L186.571 137.549L186.401 114.479Z" fill="#E9E9E9" stroke="#212629" stroke-width="0.5" stroke-miterlimit="10"/>
<path d="M186.402 114.479L137.89 180.124V194.203L186.572 137.549L186.402 114.479Z" fill="#E9E9E9" stroke="#212629" stroke-width="0.5" stroke-miterlimit="10"/>
<path d="M137.89 219.647V226.262L186.911 166.385L209.132 214.389L208.963 210.996L186.742 158.243L137.89 219.647Z" fill="#E9E9E9" stroke="#212629" stroke-width="0.5" stroke-miterlimit="10"/>
<path d="M137.89 313.45V310.227L189.456 390.121L212.355 315.146L212.525 320.405L188.777 399.619L137.89 313.45Z" fill="#E9E9E9" stroke="#212629" stroke-width="0.5" stroke-miterlimit="10"/>
<path d="M207.606 166.385V168.929L186.402 119.059L137.89 182.669V180.124L186.402 114.479L207.606 166.385Z" fill="#E9E9E9" stroke="#212629" stroke-width="0.5" stroke-miterlimit="10"/>
<path d="M149.764 92.7675C149.934 93.446 149.425 94.1245 148.577 94.2941C147.898 94.4637 147.22 93.9548 147.05 93.1067C146.88 92.4282 147.389 91.7497 148.237 91.5801C149.086 91.5801 149.594 92.089 149.764 92.7675Z" fill="#E9E9E9" stroke="#212629" stroke-width="0.5" stroke-miterlimit="10"/>
<path d="M151.122 92.598C151.291 93.2765 150.782 93.955 149.934 94.1246C149.256 94.2943 148.577 93.7854 148.408 92.9373C148.238 92.2588 148.747 91.5803 149.595 91.4106C150.273 91.4106 150.952 91.9195 151.122 92.598Z" fill="#E9E9E9" stroke="#212629" stroke-width="0.5" stroke-miterlimit="10"/>
<path d="M194.714 116.854C194.884 117.533 194.375 118.211 193.527 118.381C192.848 118.55 192.17 118.042 192 117.193C191.831 116.515 192.34 115.836 193.188 115.667C193.866 115.497 194.545 116.006 194.714 116.854Z" fill="#E9E9E9" stroke="#212629" stroke-width="0.5" stroke-miterlimit="10"/>
<path d="M169.101 89.5448C169.271 90.2233 168.762 90.9018 167.914 91.0714C167.235 91.241 166.557 90.7322 166.387 89.884C166.217 89.2055 166.726 88.527 167.574 88.3574C168.253 88.3574 168.931 88.8663 169.101 89.5448Z" fill="#E9E9E9" stroke="#212629" stroke-width="0.5" stroke-miterlimit="10"/>
<path d="M203.193 94.2943C203.362 94.9728 202.854 95.6513 202.005 95.8209C201.327 95.9906 200.648 95.4817 200.479 94.6336C200.309 93.9551 200.818 93.2766 201.666 93.1069C202.514 93.1069 203.193 93.6158 203.193 94.2943Z" fill="#E9E9E9" stroke="#212629" stroke-width="0.5" stroke-miterlimit="10"/>
<path d="M204.55 118.041C204.72 118.72 204.211 119.398 203.363 119.568C202.684 119.738 202.006 119.229 201.836 118.381C201.667 117.702 202.175 117.024 203.024 116.854C203.702 116.854 204.381 117.363 204.55 118.041Z" fill="#E9E9E9" stroke="#212629" stroke-width="0.5" stroke-miterlimit="10"/>
<path d="M205.91 224.566C206.079 225.245 205.57 225.923 204.722 226.093C204.044 226.262 203.365 225.753 203.196 224.905C203.026 224.227 203.535 223.548 204.383 223.379C205.061 223.209 205.74 223.718 205.91 224.566Z" fill="#E9E9E9" stroke="#212629" stroke-width="0.5" stroke-miterlimit="10"/>
<path d="M166.727 212.692C166.727 213.371 166.218 214.049 165.54 214.049C164.861 214.049 164.183 213.54 164.183 212.862C164.183 212.183 164.691 211.505 165.37 211.505C166.048 211.505 166.727 212.014 166.727 212.692Z" fill="#E9E9E9" stroke="#212629" stroke-width="0.5" stroke-miterlimit="10"/>
<path d="M197.257 258.661C197.257 259.34 196.748 260.018 196.07 260.018C195.391 260.018 194.713 259.509 194.713 258.831C194.713 258.152 195.222 257.474 195.9 257.474C196.579 257.474 197.257 257.983 197.257 258.661Z" fill="#E9E9E9" stroke="#212629" stroke-width="0.5" stroke-miterlimit="10"/>
<path d="M167.575 303.442C167.575 304.12 167.066 304.799 166.387 304.799C165.709 304.799 165.03 304.29 165.03 303.611C165.03 302.933 165.539 302.254 166.218 302.254C166.896 302.085 167.575 302.763 167.575 303.442Z" fill="#E9E9E9" stroke="#212629" stroke-width="0.5" stroke-miterlimit="10"/>
<path d="M162.995 246.278C162.995 246.956 162.486 247.635 161.807 247.635C161.129 247.635 160.45 247.126 160.45 246.448C160.45 245.769 160.959 245.091 161.638 245.091C162.316 244.921 162.995 245.43 162.995 246.278Z" fill="#E9E9E9" stroke="#212629" stroke-width="0.5" stroke-miterlimit="10"/>
<path d="M143.148 343.134C143.148 343.813 142.639 344.491 141.791 344.491C141.112 344.491 140.434 343.982 140.434 343.134C140.434 342.456 140.942 341.777 141.791 341.777C142.469 341.947 143.148 342.456 143.148 343.134Z" fill="#E9E9E9" stroke="#212629" stroke-width="0.5" stroke-miterlimit="10"/>
<path d="M148.575 343.134C148.575 343.813 148.066 344.491 147.218 344.491C146.54 344.491 145.861 343.982 145.861 343.134C145.861 342.456 146.37 341.777 147.218 341.777C148.066 341.947 148.575 342.456 148.575 343.134Z" fill="#E9E9E9" stroke="#212629" stroke-width="0.5" stroke-miterlimit="10"/>
<path d="M148.577 344.491C149.326 344.491 149.934 343.884 149.934 343.134C149.934 342.385 149.326 341.777 148.577 341.777C147.827 341.777 147.22 342.385 147.22 343.134C147.22 343.884 147.827 344.491 148.577 344.491Z" fill="#E9E9E9" stroke="#212629" stroke-width="0.5" stroke-miterlimit="10"/>
<path d="M148.406 119.229C148.576 119.907 147.898 120.586 147.219 120.756C146.541 120.756 145.862 120.247 145.692 119.568C145.523 118.89 146.201 118.211 146.88 118.042C147.728 118.042 148.406 118.55 148.406 119.229Z" fill="#E9E9E9" stroke="#212629" stroke-width="0.5" stroke-miterlimit="10"/>
<path d="M149.762 119.059C149.762 119.738 149.253 120.416 148.574 120.586C147.896 120.755 147.217 120.077 147.048 119.398C147.048 118.72 147.557 118.041 148.235 117.872C148.914 117.702 149.592 118.211 149.762 119.059Z" fill="#E9E9E9" stroke="#212629" stroke-width="0.5" stroke-miterlimit="10"/>
<path d="M152.309 144.334C152.478 145.012 151.8 145.691 151.121 145.86C150.443 145.86 149.764 145.351 149.595 144.673C149.595 143.994 150.104 143.316 150.782 143.146C151.63 142.977 152.309 143.486 152.309 144.334Z" fill="#E9E9E9" stroke="#212629" stroke-width="0.5" stroke-miterlimit="10"/>
<path d="M145.183 145.012C145.183 145.691 144.674 146.369 143.995 146.539C143.317 146.708 142.638 146.03 142.469 145.351C142.469 144.673 142.978 143.994 143.656 143.825C144.335 143.825 145.013 144.334 145.183 145.012Z" fill="#E9E9E9" stroke="#212629" stroke-width="0.5" stroke-miterlimit="10"/>
<path d="M489.858 93.4458L484.769 70.8857L478.833 69.1895L477.984 91.0711L489.858 93.4458Z" fill="#E9E9E9" stroke="#212629" stroke-width="0.5" stroke-miterlimit="10"/>
<path d="M478.833 69.1895L437.444 74.9567L430.659 97.1776L477.985 91.0711L478.833 69.1895Z" fill="#E9E9E9" stroke="#212629" stroke-width="0.5" stroke-miterlimit="10"/>
<path d="M477.984 412.172L475.439 90.5625L494.098 94.2943L504.445 411.663L477.984 412.172Z" fill="#E9E9E9" stroke="#212629" stroke-width="0.5" stroke-miterlimit="10"/>
<path d="M475.441 90.5625L426.928 97.6868V411.154L477.985 412.172L475.441 90.5625Z" fill="#E9E9E9" stroke="#212629" stroke-width="0.5" stroke-miterlimit="10"/>
<path d="M483.921 70.7162L478.832 34.0771L480.359 69.6984L483.921 70.7162Z" fill="#E9E9E9" stroke="#212629" stroke-width="0.5" stroke-miterlimit="10"/>
<path d="M478.832 34.0771L477.136 36.2823L473.913 66.4755L441.854 72.0732L442.871 41.371L441.514 40.8622L437.443 74.9568L480.359 69.6984L478.832 34.0771Z" fill="#E9E9E9" stroke="#212629" stroke-width="0.5" stroke-miterlimit="10"/>
<path d="M442.873 41.3711L444.569 71.5644L441.855 72.0732L442.873 41.3711Z" fill="#E9E9E9" stroke="#212629" stroke-width="0.5" stroke-miterlimit="10"/>
<path d="M469.334 171.982C469.334 172.661 468.656 173.339 467.977 173.17C467.299 173.17 466.62 172.491 466.79 171.813C466.79 171.134 467.469 170.456 468.147 170.625C468.826 170.625 469.334 171.304 469.334 171.982Z" fill="#E9E9E9" stroke="#212629" stroke-width="0.5" stroke-miterlimit="10"/>
<path d="M481.545 180.972C481.545 181.651 480.867 182.329 480.188 182.16C479.51 182.16 478.831 181.481 479.001 180.803C479.001 180.124 479.68 179.446 480.358 179.615C480.867 179.615 481.545 180.294 481.545 180.972Z" fill="#E9E9E9" stroke="#212629" stroke-width="0.5" stroke-miterlimit="10"/>
<path d="M491.216 141.11C491.216 141.789 490.538 142.467 489.859 142.298C489.181 142.298 488.502 141.619 488.672 140.941C488.672 140.262 489.35 139.584 490.029 139.753C490.707 139.923 491.216 140.432 491.216 141.11Z" fill="#E9E9E9" stroke="#212629" stroke-width="0.5" stroke-miterlimit="10"/>
<path d="M469.672 101.249C469.672 101.927 468.994 102.606 468.315 102.436C467.637 102.436 466.958 101.757 467.128 101.079C467.128 100.4 467.806 99.722 468.485 99.8916C469.163 99.8916 469.672 100.4 469.672 101.249Z" fill="#E9E9E9" stroke="#212629" stroke-width="0.5" stroke-miterlimit="10"/>
<path d="M465.093 171.982C465.093 172.661 464.415 173.339 463.736 173.17C463.058 173.17 462.379 172.491 462.549 171.813C462.549 171.134 463.227 170.456 463.906 170.625C464.584 170.625 465.093 171.304 465.093 171.982Z" fill="#E9E9E9" stroke="#212629" stroke-width="0.5" stroke-miterlimit="10"/>
<path d="M439.312 253.402C439.312 254.081 438.633 254.759 437.955 254.59C437.276 254.59 436.598 253.911 436.768 253.233C436.768 252.554 437.446 251.876 438.125 252.045C438.803 252.045 439.312 252.724 439.312 253.402Z" fill="#E9E9E9" stroke="#212629" stroke-width="0.5" stroke-miterlimit="10"/>
<path d="M453.73 253.402C453.73 254.081 453.051 254.759 452.373 254.59C451.694 254.59 451.016 253.911 451.186 253.233C451.186 252.554 451.864 251.876 452.543 252.045C453.221 252.045 453.9 252.724 453.73 253.402Z" fill="#E9E9E9" stroke="#212629" stroke-width="0.5" stroke-miterlimit="10"/>
<path d="M455.255 322.27C455.255 322.949 454.577 323.627 453.898 323.457C453.22 323.457 452.541 322.779 452.711 322.1C452.711 321.422 453.389 320.743 454.068 320.913C454.746 321.083 455.425 321.592 455.255 322.27Z" fill="#E9E9E9" stroke="#212629" stroke-width="0.5" stroke-miterlimit="10"/>
<path d="M469.672 230.164C469.672 230.842 468.994 231.521 468.315 231.351C467.637 231.351 466.958 230.673 467.128 229.994C467.128 229.316 467.806 228.637 468.485 228.807C469.163 228.807 469.672 229.485 469.672 230.164Z" fill="#E9E9E9" stroke="#212629" stroke-width="0.5" stroke-miterlimit="10"/>
<path d="M481.545 113.631C481.545 114.31 480.867 114.988 480.188 114.819C479.51 114.819 478.831 114.14 479.001 113.462C479.001 112.783 479.68 112.105 480.358 112.274C480.867 112.274 481.545 112.953 481.545 113.631Z" fill="#E9E9E9" stroke="#212629" stroke-width="0.5" stroke-miterlimit="10"/>
<path d="M485.28 113.631C485.28 114.31 484.601 114.988 483.923 114.819C483.244 114.819 482.566 114.14 482.735 113.462C482.735 112.783 483.414 112.105 484.092 112.274C484.601 112.274 485.28 112.953 485.28 113.631Z" fill="#E9E9E9" stroke="#212629" stroke-width="0.5" stroke-miterlimit="10"/>
<path d="M468.316 101.249C468.316 101.927 467.637 102.606 466.959 102.436C466.28 102.436 465.602 101.757 465.771 101.079C465.771 100.4 466.45 99.722 467.128 99.8916C467.807 99.8916 468.485 100.4 468.316 101.249Z" fill="#E9E9E9" stroke="#212629" stroke-width="0.5" stroke-miterlimit="10"/>
<path d="M459.836 101.757C459.836 102.436 459.158 103.114 458.479 102.945C457.801 102.945 457.122 102.266 457.292 101.588C457.292 100.909 457.97 100.231 458.649 100.4C459.327 100.4 459.836 100.909 459.836 101.757Z" fill="#E9E9E9" stroke="#212629" stroke-width="0.5" stroke-miterlimit="10"/>
<path d="M436.936 103.793C436.936 104.472 436.257 105.15 435.579 104.98C434.9 104.98 434.222 104.302 434.392 103.623C434.392 102.945 435.07 102.266 435.749 102.436C436.427 102.436 436.936 103.115 436.936 103.793Z" fill="#E9E9E9" stroke="#212629" stroke-width="0.5" stroke-miterlimit="10"/>
<path d="M83.607 169.607L80.5537 127.879L65.7963 136.36L39.674 124.147L36.4512 172.83L83.607 169.607Z" fill="#E9E9E9" stroke="#212629" stroke-width="0.5" stroke-miterlimit="10"/>
<path d="M1 400.806L26.2741 279.863L21.5246 187.248L65.7968 144.502V401.993L1 400.806Z" fill="#E9E9E9" stroke="#212629" stroke-width="0.5" stroke-miterlimit="10"/>
<path d="M109.558 400.976L65.7949 401.993V144.502L94.8008 185.382L92.7653 282.238L109.558 400.976Z" fill="#E9E9E9" stroke="#212629" stroke-width="0.5" stroke-miterlimit="10"/>
<path d="M80.5535 127.879L39.6738 124.147L65.7961 144.502L80.5535 127.879Z" fill="#E9E9E9" stroke="#212629" stroke-width="0.5" stroke-miterlimit="10"/>
<path d="M65.7963 144.502L39.674 124.147L36.4512 172.83L65.7963 144.502Z" fill="#E9E9E9" stroke="#212629" stroke-width="0.5" stroke-miterlimit="10"/>
<path d="M46.6299 124.826L63.4228 97.5166L75.6358 127.371L46.6299 124.826Z" fill="#E9E9E9" stroke="#212629" stroke-width="0.5" stroke-miterlimit="10"/>
<path d="M63.4228 97.5166L65.7975 126.522L46.6299 124.826L63.4228 97.5166Z" fill="#E9E9E9" stroke="#212629" stroke-width="0.5" stroke-miterlimit="10"/>
<path d="M1 400.806L66.8146 273.248L94.8027 185.382L65.7968 283.256L2.86588 400.806H1Z" fill="#E9E9E9" stroke="#212629" stroke-width="0.5" stroke-miterlimit="10"/>
<path d="M109.56 400.976L66.8143 273.248L21.5244 187.249L65.6269 276.132L107.185 400.976H109.56Z" fill="#E9E9E9" stroke="#212629" stroke-width="0.5" stroke-miterlimit="10"/>
<path d="M65.7953 144.502L63.7598 401.993H67.4915L65.7953 144.502Z" fill="#E9E9E9" stroke="#212629" stroke-width="0.5" stroke-miterlimit="10"/>
<path d="M26.2715 279.864L65.6245 276.132L92.7645 283.256V282.238L66.6423 274.775L26.2715 279.016V279.864Z" fill="#E9E9E9" stroke="#212629" stroke-width="0.5" stroke-miterlimit="10"/>
<path d="M68.0029 276.641L109.561 400.976L92.7682 283.256L68.0029 276.641Z" fill="#E9E9E9" stroke="#212629" stroke-width="0.5" stroke-miterlimit="10"/>
<path d="M65.6272 276.132L26.2741 279.015L1 400.806L65.6272 276.132Z" fill="#E9E9E9" stroke="#212629" stroke-width="0.5" stroke-miterlimit="10"/>
<path d="M29.1563 188.096C29.1563 188.775 28.817 189.284 28.1385 189.284C27.46 189.284 26.9512 188.944 26.9512 188.266C26.9512 187.587 27.2904 187.079 27.9689 187.079C28.4778 187.079 28.9867 187.587 29.1563 188.096Z" fill="#E9E9E9" stroke="#212629" stroke-width="0.5" stroke-miterlimit="10"/>
<path d="M92.7696 189.453C92.7696 190.132 92.4303 190.641 91.7518 190.641C91.0733 190.641 90.5645 190.301 90.5645 189.623C90.5645 188.944 90.9037 188.436 91.5822 188.436C92.2607 188.436 92.7696 188.944 92.7696 189.453Z" fill="#E9E9E9" stroke="#212629" stroke-width="0.5" stroke-miterlimit="10"/>
<path d="M79.3672 209.639C79.3672 210.317 79.028 210.826 78.3495 210.826C77.671 210.826 77.1621 210.487 77.1621 209.808C77.1621 209.13 77.5014 208.621 78.1799 208.621C78.6887 208.451 79.1976 208.96 79.3672 209.639Z" fill="#E9E9E9" stroke="#212629" stroke-width="0.5" stroke-miterlimit="10"/>
<path d="M41.709 309.039C41.709 309.718 41.3698 310.227 40.6913 310.227C40.0128 310.227 39.5039 309.887 39.5039 309.209C39.5039 308.53 39.8432 308.021 40.5217 308.021C41.2002 308.021 41.709 308.361 41.709 309.039Z" fill="#E9E9E9" stroke="#212629" stroke-width="0.5" stroke-miterlimit="10"/>
<path d="M47.1397 354.838C47.1397 355.517 46.8004 356.026 46.1219 356.026C45.4434 356.026 44.9346 355.686 44.9346 355.008C44.9346 354.329 45.2738 353.82 45.9523 353.82C46.4612 353.651 47.1397 354.16 47.1397 354.838Z" fill="#E9E9E9" stroke="#212629" stroke-width="0.5" stroke-miterlimit="10"/>
<path d="M38.3184 309.378C38.3184 310.057 37.9792 310.566 37.3007 310.566C36.6222 310.566 36.1133 310.226 36.1133 309.548C36.1133 308.869 36.4525 308.361 37.131 308.361C37.6399 308.191 38.1488 308.7 38.3184 309.378Z" fill="#E9E9E9" stroke="#212629" stroke-width="0.5" stroke-miterlimit="10"/>
<path d="M87.6788 247.974C87.6788 248.652 87.3395 249.161 86.661 249.161C85.9825 249.161 85.4736 248.822 85.4736 248.143C85.4736 247.465 85.8129 246.956 86.4914 246.956C87.1699 246.956 87.6788 247.465 87.6788 247.974Z" fill="#E9E9E9" stroke="#212629" stroke-width="0.5" stroke-miterlimit="10"/>
<path d="M88.6954 188.436C88.6954 189.114 88.3561 189.623 87.6776 189.623C86.9991 189.623 86.4902 189.284 86.4902 188.605C86.4902 187.927 86.8295 187.418 87.508 187.418C88.1865 187.418 88.6954 187.927 88.6954 188.436Z" fill="#E9E9E9" stroke="#212629" stroke-width="0.5" stroke-miterlimit="10"/>
<path d="M78.1797 141.789C78.1797 142.467 77.8405 142.976 77.162 142.976C76.4835 142.976 75.9746 142.637 75.9746 141.958C75.9746 141.28 76.3139 140.771 76.9924 140.771C77.6709 140.771 78.1797 141.28 78.1797 141.789Z" fill="#E9E9E9" stroke="#212629" stroke-width="0.5" stroke-miterlimit="10"/>
<path d="M59.3506 129.406C59.3506 130.084 59.0114 130.593 58.3329 130.593C57.6544 130.593 57.1455 130.254 57.1455 129.576C57.1455 128.897 57.4848 128.388 58.1633 128.388C58.8418 128.388 59.3506 128.897 59.3506 129.406Z" fill="#E9E9E9" stroke="#212629" stroke-width="0.5" stroke-miterlimit="10"/>
<path d="M44.253 145.52C44.253 146.199 43.9137 146.708 43.2352 146.708C42.5567 146.708 42.0479 146.368 42.0479 145.69C42.0479 145.011 42.3871 144.502 43.0656 144.502C43.7441 144.502 44.253 144.842 44.253 145.52Z" fill="#E9E9E9" stroke="#212629" stroke-width="0.5" stroke-miterlimit="10"/>
<path d="M87.6788 188.096C87.6788 188.775 87.3395 189.284 86.661 189.284C85.9825 189.284 85.4736 188.944 85.4736 188.266C85.4736 187.587 85.8129 187.079 86.4914 187.079C87.1699 187.079 87.6788 187.587 87.6788 188.096Z" fill="#E9E9E9" stroke="#212629" stroke-width="0.5" stroke-miterlimit="10"/>
<path d="M654.057 190.641L651.852 184.534L605.883 180.633L603.848 187.079L654.057 190.641Z" fill="#E9E9E9" stroke="#212629" stroke-width="0.5" stroke-miterlimit="10"/>
<path d="M605.884 180.633L589.091 188.944L586.038 194.372L603.849 187.079L605.884 180.633Z" fill="#E9E9E9" stroke="#212629" stroke-width="0.5" stroke-miterlimit="10"/>
<path d="M605.884 180.633L599.607 170.794L660.164 177.579L651.852 184.534L605.884 180.633Z" fill="#E9E9E9" stroke="#212629" stroke-width="0.5" stroke-miterlimit="10"/>
<path d="M660.164 177.58L655.075 143.994L599.607 134.325V170.795L660.164 177.58Z" fill="#E9E9E9" stroke="#212629" stroke-width="0.5" stroke-miterlimit="10"/>
<path d="M599.606 134.325L588.411 140.262L583.831 179.954L599.606 170.795V134.325Z" fill="#E9E9E9" stroke="#212629" stroke-width="0.5" stroke-miterlimit="10"/>
<path d="M589.088 188.944L582.134 180.633L599.605 170.794L605.881 180.633L589.088 188.944Z" fill="#E9E9E9" stroke="#212629" stroke-width="0.5" stroke-miterlimit="10"/>
<path d="M599.605 187.079L658.465 190.98L670.678 406.065H593.329L599.605 187.079Z" fill="#E9E9E9" stroke="#212629" stroke-width="0.5" stroke-miterlimit="10"/>
<path d="M599.607 187.079L581.118 196.917L564.664 406.065H593.331L599.607 187.079Z" fill="#E9E9E9" stroke="#212629" stroke-width="0.5" stroke-miterlimit="10"/>
<path d="M625.899 406.065H642.522L599.607 187.079L598.929 211.844L625.899 406.065Z" fill="#E9E9E9" stroke="#212629" stroke-width="0.5" stroke-miterlimit="10"/>
<path d="M650.154 406.065L659.144 204.889L660.501 226.771L652.359 406.065H650.154Z" fill="#E9E9E9" stroke="#212629" stroke-width="0.5" stroke-miterlimit="10"/>
<path d="M642.523 406.065H650.156L659.146 204.889L658.467 190.98L599.607 187.079L642.523 406.065Z" fill="#E9E9E9" stroke="#212629" stroke-width="0.5" stroke-miterlimit="10"/>
<path d="M620.639 193.185C620.639 193.864 620.131 194.373 619.452 194.373C618.774 194.373 618.265 193.864 618.265 193.185C618.265 192.507 618.774 191.998 619.452 191.998C620.131 191.828 620.639 192.507 620.639 193.185Z" fill="#E9E9E9" stroke="#212629" stroke-width="0.5" stroke-miterlimit="10"/>
<path d="M656.431 235.082C656.431 235.761 655.922 236.27 655.244 236.27C654.565 236.27 654.057 235.761 654.057 235.082C654.057 234.404 654.565 233.895 655.244 233.895C655.922 233.895 656.601 234.404 656.431 235.082Z" fill="#E9E9E9" stroke="#212629" stroke-width="0.5" stroke-miterlimit="10"/>
<path d="M655.244 196.917C655.9 196.917 656.431 196.385 656.431 195.729C656.431 195.074 655.9 194.542 655.244 194.542C654.588 194.542 654.057 195.074 654.057 195.729C654.057 196.385 654.588 196.917 655.244 196.917Z" fill="#E9E9E9" stroke="#212629" stroke-width="0.5" stroke-miterlimit="10"/>
<path d="M653.717 147.556C653.717 148.235 653.208 148.743 652.529 148.743C651.851 148.743 651.342 148.235 651.342 147.556C651.342 146.878 651.851 146.369 652.529 146.369C653.208 146.369 653.717 146.878 653.717 147.556Z" fill="#E9E9E9" stroke="#212629" stroke-width="0.5" stroke-miterlimit="10"/>
<path d="M646.425 147.556C647.08 147.556 647.612 147.024 647.612 146.369C647.612 145.713 647.08 145.181 646.425 145.181C645.769 145.181 645.237 145.713 645.237 146.369C645.237 147.024 645.769 147.556 646.425 147.556Z" fill="#E9E9E9" stroke="#212629" stroke-width="0.5" stroke-miterlimit="10"/>
<path d="M645.066 145.86C645.066 146.538 644.557 147.047 643.879 147.047C643.2 147.047 642.691 146.538 642.691 145.86C642.691 145.181 643.2 144.672 643.879 144.672C644.557 144.672 645.066 145.351 645.066 145.86Z" fill="#E9E9E9" stroke="#212629" stroke-width="0.5" stroke-miterlimit="10"/>
<path d="M604.865 294.112C604.865 294.791 604.356 295.3 603.678 295.3C602.999 295.3 602.49 294.791 602.49 294.112C602.49 293.434 602.999 292.925 603.678 292.925C604.186 292.925 604.865 293.434 604.865 294.112Z" fill="#E9E9E9" stroke="#212629" stroke-width="0.5" stroke-miterlimit="10"/>
<path d="M606.056 294.112C606.056 294.791 605.548 295.3 604.869 295.3C604.191 295.3 603.682 294.791 603.682 294.112C603.682 293.434 604.191 292.925 604.869 292.925C605.378 292.925 606.056 293.434 606.056 294.112Z" fill="#E9E9E9" stroke="#212629" stroke-width="0.5" stroke-miterlimit="10"/>
<path d="M652.529 234.913C652.529 235.591 652.02 236.1 651.342 236.1C650.663 236.1 650.154 235.591 650.154 234.913C650.154 234.234 650.663 233.726 651.342 233.726C652.02 233.726 652.529 234.234 652.529 234.913Z" fill="#E9E9E9" stroke="#212629" stroke-width="0.5" stroke-miterlimit="10"/>
<path d="M649.647 234.913C649.647 235.591 649.138 236.1 648.46 236.1C647.781 236.1 647.272 235.591 647.272 234.913C647.272 234.234 647.781 233.726 648.46 233.726C649.138 233.556 649.647 234.234 649.647 234.913Z" fill="#E9E9E9" stroke="#212629" stroke-width="0.5" stroke-miterlimit="10"/>
<path d="M639.638 234.574C639.638 235.252 639.13 235.761 638.451 235.761C637.773 235.761 637.264 235.252 637.264 234.574C637.264 233.895 637.773 233.386 638.451 233.386C639.13 233.217 639.638 233.895 639.638 234.574Z" fill="#E9E9E9" stroke="#212629" stroke-width="0.5" stroke-miterlimit="10"/>
<path d="M620.639 263.071C620.639 263.749 620.131 264.258 619.452 264.258C618.774 264.258 618.265 263.749 618.265 263.071C618.265 262.392 618.774 261.883 619.452 261.883C620.131 261.883 620.639 262.392 620.639 263.071Z" fill="#E9E9E9" stroke="#212629" stroke-width="0.5" stroke-miterlimit="10"/>
<path d="M650.835 342.794C650.835 343.473 650.326 343.982 649.647 343.982C648.969 343.982 648.46 343.473 648.46 342.794C648.46 342.116 648.969 341.607 649.647 341.607C650.326 341.607 650.835 342.116 650.835 342.794Z" fill="#E9E9E9" stroke="#212629" stroke-width="0.5" stroke-miterlimit="10"/>
<path d="M645.403 342.794C645.403 343.473 644.894 343.982 644.216 343.982C643.537 343.982 643.028 343.473 643.028 342.794C643.028 342.116 643.537 341.607 644.216 341.607C644.894 341.607 645.403 342.116 645.403 342.794Z" fill="#E9E9E9" stroke="#212629" stroke-width="0.5" stroke-miterlimit="10"/>
<path d="M642.521 342.794C642.521 343.473 642.012 343.982 641.334 343.982C640.655 343.982 640.146 343.473 640.146 342.794C640.146 342.116 640.655 341.607 641.334 341.607C642.012 341.607 642.521 342.116 642.521 342.794Z" fill="#E9E9E9" stroke="#212629" stroke-width="0.5" stroke-miterlimit="10"/>
<path d="M609.274 389.441C609.274 390.12 608.765 390.629 608.087 390.629C607.408 390.629 606.899 390.12 606.899 389.441C606.899 388.763 607.408 388.254 608.087 388.254C608.765 388.254 609.274 388.763 609.274 389.441Z" fill="#E9E9E9" stroke="#212629" stroke-width="0.5" stroke-miterlimit="10"/>
<path d="M614.026 193.185C614.026 193.864 613.517 194.373 612.839 194.373C612.16 194.373 611.651 193.864 611.651 193.185C611.651 192.507 612.16 191.998 612.839 191.998C613.348 191.828 614.026 192.507 614.026 193.185Z" fill="#E9E9E9" stroke="#212629" stroke-width="0.5" stroke-miterlimit="10"/>
<path d="M658.13 164.179L599.609 157.055L586.039 163.501L585.36 165.536L599.609 158.412L658.299 164.858L658.13 164.179Z" fill="#E9E9E9" stroke="#212629" stroke-width="0.5" stroke-miterlimit="10"/>
<path d="M624.206 312.432L654.399 312.093L654.23 313.959L624.715 314.807L624.206 312.432Z" fill="#E9E9E9" stroke="#212629" stroke-width="0.5" stroke-miterlimit="10"/>
<path d="M637.604 381.13H651.174V383.505H638.112L637.604 381.13Z" fill="#E9E9E9" stroke="#212629" stroke-width="0.5" stroke-miterlimit="10"/>
<path d="M302.256 72.9209L243.226 105.998L235.084 118.55L294.453 95.6507L302.256 72.9209Z" fill="#E9E9E9" stroke="#212629" stroke-width="0.5" stroke-miterlimit="10"/>
<path d="M258.155 407.761H183.52L221.516 126.523L277.831 93.1064L258.155 407.761Z" fill="#E9E9E9" stroke="#212629" stroke-width="0.5" stroke-miterlimit="10"/>
<path d="M324.31 407.591L304.803 96.3293L277.833 93.1064L258.156 407.761L324.31 407.591Z" fill="#E9E9E9" stroke="#212629" stroke-width="0.5" stroke-miterlimit="10"/>
<path d="M299.884 409.288C313.374 409.288 324.31 334.331 324.31 241.868C324.31 149.404 313.374 74.4478 299.884 74.4478C286.394 74.4478 275.458 149.404 275.458 241.868C275.458 334.331 286.394 409.288 299.884 409.288Z" fill="#E9E9E9" stroke="#212629" stroke-width="0.5" stroke-miterlimit="10"/>
<path d="M302.257 407.761C315.747 407.761 326.683 332.804 326.683 240.341C326.683 147.877 315.747 72.9209 302.257 72.9209C288.767 72.9209 277.831 147.877 277.831 240.341C277.831 332.804 288.767 407.761 302.257 407.761Z" fill="#E9E9E9" stroke="#212629" stroke-width="0.5" stroke-miterlimit="10"/>
<path d="M324.311 240.341C324.311 324.814 314.981 393.682 303.447 397.753C303.108 397.923 302.768 397.923 302.429 397.923C290.216 397.923 280.378 327.359 280.378 240.341C280.378 161.635 288.35 96.4989 299.037 84.6252C300.224 83.4378 301.242 82.7593 302.429 82.7593C314.473 82.7593 324.311 153.323 324.311 240.341Z" fill="#E9E9E9" stroke="#212629" stroke-width="0.5" stroke-miterlimit="10"/>
<path d="M321.936 242.037C321.936 320.743 313.964 385.879 303.447 397.753C303.108 397.923 302.768 397.923 302.429 397.923C290.216 397.923 280.378 327.359 280.378 240.341C280.378 161.635 288.35 96.4989 299.037 84.6252C299.376 84.4556 299.715 84.4556 300.054 84.4556C312.098 84.4556 321.936 155.02 321.936 242.037Z" fill="#E9E9E9" stroke="#212629" stroke-width="0.5" stroke-miterlimit="10"/>
<path d="M283.597 157.055L321.593 165.876L321.933 167.402L283.428 158.412L283.597 157.055Z" fill="#E9E9E9" stroke="#212629" stroke-width="0.5" stroke-miterlimit="10"/>
<path d="M280.378 219.138L324.311 228.637V229.994L280.378 220.834V219.138Z" fill="#E9E9E9" stroke="#212629" stroke-width="0.5" stroke-miterlimit="10"/>
<path d="M280.883 276.641L323.459 282.238V283.595L280.883 278.507V276.641Z" fill="#E9E9E9" stroke="#212629" stroke-width="0.5" stroke-miterlimit="10"/>
<path d="M285.633 344.321L318.37 347.375L318.201 348.392L285.972 346.018L285.633 344.321Z" fill="#E9E9E9" stroke="#212629" stroke-width="0.5" stroke-miterlimit="10"/>
<mask id="mask0_203_18985" style="mask-type:alpha" maskUnits="userSpaceOnUse" x="235" y="136" width="33" height="14">
<path d="M266.298 140.432L238.14 149.592C237.122 149.931 236.104 149.422 235.935 148.404C235.595 147.386 236.104 146.369 237.122 146.199L265.28 137.039C266.298 136.7 267.315 137.209 267.485 138.227C267.824 139.075 267.146 140.092 266.298 140.432Z" fill="url(#paint0_linear_203_18985)"/>
</mask>
<g mask="url(#mask0_203_18985)">
<path opacity="0.85" d="M266.299 140.432L238.141 149.592C237.123 149.931 236.105 149.422 235.936 148.404C235.596 147.386 236.105 146.369 237.123 146.199L265.281 137.039C266.299 136.7 267.316 137.209 267.486 138.227C267.825 139.075 267.147 140.092 266.299 140.432Z" fill="#E9E9E9" stroke="#212629" stroke-width="0.5" stroke-miterlimit="10"/>
<path d="M253.404 407.592L202.686 407.761H193.526C193.526 407.761 213.033 145.012 240.004 128.558C242.378 127.032 244.584 128.049 246.28 131.272C264.599 162.823 253.404 407.592 253.404 407.592Z" fill="#E9E9E9" stroke="#212629" stroke-width="0.5" stroke-miterlimit="10"/>
<path d="M253.403 407.591L197.766 407.761C197.935 405.047 210.148 179.615 246.278 131.272C264.598 162.822 253.403 407.591 253.403 407.591Z" fill="#E9E9E9" stroke="#212629" stroke-width="0.5" stroke-miterlimit="10"/>
</g>
<path d="M553.296 63.931V60.5385L523.951 38.1479V46.6292L553.296 63.931Z" fill="#E9E9E9" stroke="#212629" stroke-width="0.5" stroke-miterlimit="10"/>
<path d="M497.831 59.1815V50.5306L523.953 38.1479V46.6292L497.831 59.1815Z" fill="#E9E9E9" stroke="#212629" stroke-width="0.5" stroke-miterlimit="10"/>
<path d="M489.008 408.44L493.418 240.002L489.008 237.118L490.704 150.609L493.418 149.761V57.3155L527.343 43.4062L540.743 408.609L489.008 408.44Z" fill="#E9E9E9" stroke="#212629" stroke-width="0.5" stroke-miterlimit="10"/>
<path d="M527.346 43.4062L559.235 68.6804L568.225 148.743L565.851 148.913L574.502 236.1L578.403 236.44L594.517 408.609H540.746L533.791 231.69L529.381 228.976L527.346 137.379L530.569 137.718L527.346 43.4062Z" fill="#E9E9E9" stroke="#212629" stroke-width="0.5" stroke-miterlimit="10"/>
<path d="M529.379 228.976L489.008 237.118L493.418 240.002L533.789 231.69L529.379 228.976Z" fill="#E9E9E9" stroke="#212629" stroke-width="0.5" stroke-miterlimit="10"/>
<path d="M527.342 137.378L490.703 149.252V150.609L527.342 138.566V137.378Z" fill="#E9E9E9" stroke="#212629" stroke-width="0.5" stroke-miterlimit="10"/>
<path d="M533.788 231.69L578.399 236.44V237.627L533.788 233.556V231.69Z" fill="#E9E9E9" stroke="#212629" stroke-width="0.5" stroke-miterlimit="10"/>
<path d="M568.225 148.743L565.851 148.913L527.346 137.378L530.569 135.682L568.225 148.743Z" fill="#E9E9E9" stroke="#212629" stroke-width="0.5" stroke-miterlimit="10"/>
<mask id="mask1_203_18985" style="mask-type:alpha" maskUnits="userSpaceOnUse" x="532" y="174" width="34" height="9">
<path d="M563.475 182.159L534.3 177.749C533.282 177.58 532.603 176.731 532.773 175.714C532.943 174.696 533.791 174.017 534.809 174.187L563.984 178.597C565.002 178.767 565.68 179.615 565.511 180.633C565.341 181.651 564.323 182.329 563.475 182.159Z" fill="url(#paint1_linear_203_18985)"/>
</mask>
<g mask="url(#mask1_203_18985)">
<path opacity="0.85" d="M563.472 182.159L534.297 177.749C533.279 177.58 532.6 176.731 532.77 175.714C532.94 174.696 533.788 174.017 534.806 174.187L563.981 178.597C564.999 178.767 565.677 179.615 565.508 180.633C565.338 181.651 564.32 182.329 563.472 182.159Z" fill="#E9E9E9" stroke="#212629" stroke-width="0.5" stroke-miterlimit="10"/>
</g>
<mask id="mask2_203_18985" style="mask-type:alpha" maskUnits="userSpaceOnUse" x="495" y="313" width="34" height="7">
<path d="M527.004 316.672L497.489 319.217C496.471 319.217 495.623 318.538 495.623 317.521C495.623 316.503 496.302 315.655 497.319 315.655L526.834 313.11C527.852 313.11 528.7 313.789 528.7 314.807C528.87 315.824 528.021 316.672 527.004 316.672Z" fill="url(#paint2_linear_203_18985)"/>
</mask>
<g mask="url(#mask2_203_18985)">
<path opacity="0.85" d="M527.003 316.672L497.488 319.217C496.47 319.217 495.622 318.538 495.622 317.521C495.622 316.503 496.301 315.655 497.318 315.655L526.833 313.11C527.851 313.11 528.699 313.789 528.699 314.807C528.869 315.824 528.02 316.672 527.003 316.672Z" fill="#E9E9E9" stroke="#212629" stroke-width="0.5" stroke-miterlimit="10"/>
</g>
<mask id="mask3_203_18985" style="mask-type:alpha" maskUnits="userSpaceOnUse" x="539" y="241" width="34" height="6">
<path d="M570.767 246.956L541.252 245.09C540.234 245.09 539.556 244.242 539.556 243.225C539.556 242.207 540.404 241.528 541.422 241.528L570.936 243.394C571.954 243.394 572.633 244.242 572.633 245.26C572.633 246.278 571.784 247.126 570.767 246.956Z" fill="url(#paint3_linear_203_18985)"/>
</mask>
<g mask="url(#mask3_203_18985)">
<path opacity="0.85" d="M570.766 246.956L541.251 245.09C540.233 245.09 539.555 244.242 539.555 243.225C539.555 242.207 540.403 241.528 541.421 241.528L570.935 243.394C571.953 243.394 572.632 244.242 572.632 245.26C572.632 246.278 571.783 247.126 570.766 246.956Z" fill="#E9E9E9" stroke="#212629" stroke-width="0.5" stroke-miterlimit="10"/>
<path d="M570.427 245.26C570.257 246.108 569.409 246.787 568.561 246.617C567.713 246.448 567.034 245.599 567.204 244.751C567.374 243.903 568.222 243.225 569.07 243.394C570.088 243.564 570.596 244.412 570.427 245.26Z" fill="#E9E9E9" stroke="#212629" stroke-width="0.5" stroke-miterlimit="10"/>
</g>
<path d="M354.668 63.2528L359.587 46.9687C359.587 46.9687 377.737 6.76758 380.451 6.76758C383.165 6.76758 440.329 28.4796 440.329 28.4796L354.668 63.2528Z" fill="#E9E9E9" stroke="#212629" stroke-width="0.5" stroke-miterlimit="10"/>
<path d="M484.431 407.592H328.376C328.376 407.592 321.761 313.619 344.49 227.619C371.291 126.014 374.514 90.9016 376.041 15.9272L445.248 29.4973C445.248 29.4973 478.155 160.957 445.417 264.937C487.654 343.473 484.431 407.592 484.431 407.592Z" fill="#E9E9E9" stroke="#212629" stroke-width="0.5" stroke-miterlimit="10"/>
<path d="M485.787 407.592H469.673C469.673 407.592 455.764 337.197 388.083 260.357C353.819 221.513 342.454 180.124 340.249 146.878C337.535 108.373 347.204 80.724 347.204 80.724C356.703 58.5032 362.131 48.8345 376.21 15.9272C376.04 53.0751 379.602 79.5367 389.78 110.408C399.787 140.771 416.071 175.544 441.176 228.976C478.324 308.531 485.787 407.592 485.787 407.592Z" fill="#E9E9E9" stroke="#212629" stroke-width="0.5" stroke-miterlimit="10"/>
<path d="M376.379 1L365.354 40.1834L368.237 33.9073L375.361 10.499L376.379 1Z" fill="#E9E9E9" stroke="#212629" stroke-width="0.5" stroke-miterlimit="10"/>
<path d="M381.978 1L382.995 17.284L384.183 17.6233V1.84813L381.978 1Z" fill="#E9E9E9" stroke="#212629" stroke-width="0.5" stroke-miterlimit="10"/>
<path d="M400.805 8.29395L400.127 20.6766L401.145 20.8462L402.841 9.14207L400.805 8.29395Z" fill="#E9E9E9" stroke="#212629" stroke-width="0.5" stroke-miterlimit="10"/>
<path d="M428.114 20.6768L427.605 26.1048L428.454 26.2744L429.641 21.6945L428.114 20.6768Z" fill="#E9E9E9" stroke="#212629" stroke-width="0.5" stroke-miterlimit="10"/>
<path d="M417.43 15.7573L415.395 23.7297L416.412 23.8993L419.466 16.0966L417.43 15.7573Z" fill="#E9E9E9" stroke="#212629" stroke-width="0.5" stroke-miterlimit="10"/>
<path d="M327.867 407.761C327.019 391.138 327.019 374.684 327.358 358.231C327.698 341.777 328.546 325.154 330.072 308.7C331.599 292.247 333.635 275.793 336.688 259.679C339.911 243.395 343.812 227.45 349.41 211.844C343.982 227.45 340.25 243.564 337.366 259.679C334.483 275.963 332.786 292.247 331.429 308.7C330.242 325.154 329.564 341.607 329.394 358.061C329.224 374.515 329.564 390.968 330.581 407.422L327.867 407.761Z" fill="#E9E9E9" stroke="#212629" stroke-width="0.5" stroke-miterlimit="10"/>
<path d="M412.851 40.5229C412.681 41.371 411.833 42.0495 410.985 41.8799C410.137 41.7103 409.458 40.8622 409.628 40.014C409.797 39.1659 410.645 38.4874 411.494 38.657C412.342 38.657 413.02 39.5052 412.851 40.5229Z" fill="#E9E9E9" stroke="#212629" stroke-width="0.5" stroke-miterlimit="10"/>
<path d="M439.818 101.757C439.649 102.605 438.801 103.284 437.953 103.114C437.104 102.945 436.426 102.097 436.596 101.248C436.765 100.4 437.613 99.7218 438.461 99.8914C439.31 100.061 439.818 100.909 439.818 101.757Z" fill="#E9E9E9" stroke="#212629" stroke-width="0.5" stroke-miterlimit="10"/>
<path d="M412.339 98.0258C412.169 98.874 411.321 99.5525 410.473 99.3828C409.625 99.2132 408.946 98.3651 409.116 97.517C409.286 96.6688 410.134 95.9903 410.982 96.16C412 96.3296 412.509 97.1777 412.339 98.0258Z" fill="#E9E9E9" stroke="#212629" stroke-width="0.5" stroke-miterlimit="10"/>
<path d="M400.466 110.578C400.296 111.426 399.448 112.105 398.6 111.935C397.752 111.765 397.073 110.917 397.243 110.069C397.413 109.221 398.261 108.543 399.109 108.712C399.957 108.882 400.466 109.73 400.466 110.578Z" fill="#E9E9E9" stroke="#212629" stroke-width="0.5" stroke-miterlimit="10"/>
<path d="M374.856 70.0376C374.687 70.8857 373.839 71.5642 372.991 71.3946C372.142 71.2249 371.464 70.3768 371.634 69.5287C371.803 68.6805 372.651 68.002 373.499 68.1717C374.348 68.3413 375.026 69.0198 374.856 70.0376Z" fill="#E9E9E9" stroke="#212629" stroke-width="0.5" stroke-miterlimit="10"/>
<path d="M445.927 113.801C445.757 114.649 444.909 115.327 444.061 115.158C443.213 114.988 442.534 114.14 442.704 113.292C442.874 112.444 443.722 111.765 444.57 111.935C445.418 112.104 445.927 112.953 445.927 113.801Z" fill="#E9E9E9" stroke="#212629" stroke-width="0.5" stroke-miterlimit="10"/>
<path d="M448.302 71.5644C448.132 72.4125 447.284 73.091 446.436 72.9214C445.588 72.7518 444.909 71.9037 445.079 71.0555C445.249 70.2074 446.097 69.5289 446.945 69.6985C447.963 69.8682 448.471 70.7163 448.302 71.5644Z" fill="#E9E9E9" stroke="#212629" stroke-width="0.5" stroke-miterlimit="10"/>
<path d="M443.555 45.7812C443.385 46.6293 442.537 47.3078 441.689 47.1382C440.841 46.9686 440.162 46.1205 440.332 45.2723C440.501 44.4242 441.35 43.7457 442.198 43.9153C443.046 44.085 443.724 44.9331 443.555 45.7812Z" fill="#E9E9E9" stroke="#212629" stroke-width="0.5" stroke-miterlimit="10"/>
<path d="M441.348 70.8857C441.178 71.7338 440.33 72.4123 439.482 72.2427C438.634 72.0731 437.955 71.2249 438.125 70.3768C438.294 69.5287 439.143 68.8502 439.991 69.0198C441.008 69.1894 441.517 70.0376 441.348 70.8857Z" fill="#E9E9E9" stroke="#212629" stroke-width="0.5" stroke-miterlimit="10"/>
<path d="M411.831 40.353C411.661 41.2011 410.813 41.8796 409.965 41.71C409.117 41.5404 408.439 40.6922 408.608 39.8441C408.778 38.996 409.626 38.3175 410.474 38.4871C411.492 38.6567 412.001 39.5049 411.831 40.353Z" fill="#E9E9E9" stroke="#212629" stroke-width="0.5" stroke-miterlimit="10"/>
<path d="M385.679 45.2328C386.015 44.3581 385.577 43.3771 384.703 43.0417C383.828 42.7063 382.847 43.1436 382.512 44.0183C382.176 44.893 382.613 45.8739 383.488 46.2093C384.363 46.5447 385.344 46.1075 385.679 45.2328Z" fill="#E9E9E9" stroke="#212629" stroke-width="0.5" stroke-miterlimit="10"/>
<path d="M390.289 62.7436C390.119 63.5917 389.271 64.2702 388.423 64.1006C387.575 63.931 386.897 63.0829 387.066 62.2347C387.236 61.3866 388.084 60.7081 388.932 60.8777C389.78 61.0474 390.459 61.8955 390.289 62.7436Z" fill="#E9E9E9" stroke="#212629" stroke-width="0.5" stroke-miterlimit="10"/>
<path d="M377.736 225.244C377.905 226.093 377.227 226.941 376.209 227.11C375.361 227.28 374.513 226.601 374.343 225.584C374.174 224.736 374.852 223.887 375.87 223.718C376.888 223.718 377.736 224.396 377.736 225.244Z" fill="#E9E9E9" stroke="#212629" stroke-width="0.5" stroke-miterlimit="10"/>
<path d="M372.647 193.525C372.817 194.373 372.138 195.221 371.12 195.391C370.272 195.56 369.424 194.882 369.254 193.864C369.085 193.016 369.763 192.168 370.781 191.998C371.799 191.998 372.647 192.677 372.647 193.525Z" fill="#E9E9E9" stroke="#212629" stroke-width="0.5" stroke-miterlimit="10"/>
<path d="M432.185 249.501C432.185 250.349 431.507 251.197 430.489 251.197C429.641 251.197 428.793 250.519 428.793 249.501C428.793 248.653 429.471 247.805 430.489 247.805C431.337 247.805 432.185 248.483 432.185 249.501Z" fill="#E9E9E9" stroke="#212629" stroke-width="0.5" stroke-miterlimit="10"/>
<path d="M439.821 312.941C439.821 313.789 439.143 314.637 438.125 314.637C437.277 314.637 436.429 313.959 436.429 312.941C436.429 312.093 437.107 311.245 438.125 311.245C439.143 311.245 439.821 311.923 439.821 312.941Z" fill="#E9E9E9" stroke="#212629" stroke-width="0.5" stroke-miterlimit="10"/>
<path d="M395.719 337.875C395.719 338.724 395.04 339.572 394.022 339.572C393.174 339.572 392.326 338.893 392.326 337.875C392.326 336.858 393.005 336.179 394.022 336.179C394.871 336.349 395.719 337.027 395.719 337.875Z" fill="#E9E9E9" stroke="#212629" stroke-width="0.5" stroke-miterlimit="10"/>
<path d="M456.445 312.941C456.445 313.789 455.767 314.637 454.749 314.637C453.901 314.637 453.053 313.959 453.053 312.941C453.053 312.093 453.731 311.245 454.749 311.245C455.767 311.245 456.445 311.923 456.445 312.941Z" fill="#E9E9E9" stroke="#212629" stroke-width="0.5" stroke-miterlimit="10"/>
<path d="M458.139 312.941C458.139 313.789 457.46 314.637 456.442 314.637C455.594 314.637 454.746 313.959 454.746 312.941C454.746 312.093 455.425 311.245 456.442 311.245C457.46 311.245 458.139 311.923 458.139 312.941Z" fill="#E9E9E9" stroke="#212629" stroke-width="0.5" stroke-miterlimit="10"/>
<path d="M350.938 372.14C350.938 372.988 350.26 373.836 349.242 373.836C348.224 373.836 347.546 373.157 347.546 372.14C347.546 371.291 348.224 370.443 349.242 370.443C350.26 370.443 350.938 371.122 350.938 372.14Z" fill="#E9E9E9" stroke="#212629" stroke-width="0.5" stroke-miterlimit="10"/>
<path d="M359.589 314.468C359.589 315.316 358.91 316.164 357.893 316.164C357.044 316.164 356.196 315.485 356.196 314.468C356.196 313.62 356.875 312.771 357.893 312.771C358.91 312.941 359.589 313.62 359.589 314.468Z" fill="#E9E9E9" stroke="#212629" stroke-width="0.5" stroke-miterlimit="10"/>
<path d="M379.434 277.15C379.434 277.998 378.755 278.846 377.737 278.846C376.889 278.846 376.041 278.168 376.041 277.15C376.041 276.302 376.72 275.454 377.737 275.454C378.755 275.454 379.434 276.302 379.434 277.15Z" fill="#E9E9E9" stroke="#212629" stroke-width="0.5" stroke-miterlimit="10"/>
<path d="M417.6 337.706C417.6 338.554 416.921 339.402 415.903 339.402C415.055 339.402 414.207 338.724 414.207 337.706C414.207 336.858 414.886 336.01 415.903 336.01C416.921 336.179 417.6 336.858 417.6 337.706Z" fill="#E9E9E9" stroke="#212629" stroke-width="0.5" stroke-miterlimit="10"/>
<path d="M446.944 276.811C446.944 277.659 446.266 278.507 445.248 278.507C444.4 278.507 443.552 277.828 443.552 276.811C443.552 275.962 444.23 275.114 445.248 275.114C446.266 275.114 446.944 275.962 446.944 276.811Z" fill="#E9E9E9" stroke="#212629" stroke-width="0.5" stroke-miterlimit="10"/>
<path d="M405.897 124.148C405.727 124.996 404.879 125.675 404.031 125.505C403.183 125.335 402.504 124.487 402.674 123.639C402.843 122.791 403.691 122.112 404.54 122.282C405.388 122.452 405.897 123.3 405.897 124.148Z" fill="#E9E9E9" stroke="#212629" stroke-width="0.5" stroke-miterlimit="10"/>
<path d="M401.484 155.698C401.315 156.546 400.467 157.225 399.619 157.055C398.77 156.886 398.092 156.037 398.262 155.189C398.431 154.341 399.279 153.663 400.127 153.832C400.976 153.832 401.654 154.68 401.484 155.698Z" fill="#E9E9E9" stroke="#212629" stroke-width="0.5" stroke-miterlimit="10"/>
<path d="M398.769 156.546C398.599 157.394 397.751 158.073 396.903 157.903C396.055 157.734 395.376 156.886 395.546 156.037C395.715 155.189 396.563 154.511 397.412 154.68C398.26 154.85 398.938 155.698 398.769 156.546Z" fill="#E9E9E9" stroke="#212629" stroke-width="0.5" stroke-miterlimit="10"/>
<path d="M386.05 161.466C385.88 162.314 385.032 162.992 384.184 162.823C383.336 162.653 382.657 161.805 382.827 160.957C382.997 160.109 383.845 159.43 384.693 159.6C385.711 159.77 386.219 160.618 386.05 161.466Z" fill="#E9E9E9" stroke="#212629" stroke-width="0.5" stroke-miterlimit="10"/>
<path d="M384.013 162.144C383.843 162.992 382.995 163.671 382.147 163.501C381.299 163.331 380.62 162.483 380.79 161.635C380.959 160.787 381.808 160.108 382.656 160.278C383.673 160.448 384.182 161.296 384.013 162.144Z" fill="#E9E9E9" stroke="#212629" stroke-width="0.5" stroke-miterlimit="10"/>
<path d="M417.428 125.335C417.258 126.184 416.41 126.862 415.562 126.692C414.714 126.523 414.035 125.675 414.205 124.827C414.375 123.978 415.223 123.3 416.071 123.47C416.919 123.639 417.428 124.487 417.428 125.335Z" fill="#E9E9E9" stroke="#212629" stroke-width="0.5" stroke-miterlimit="10"/>
<path d="M442.025 141.958C441.856 142.807 441.008 143.485 440.16 143.315C439.311 143.146 438.633 142.298 438.803 141.45C438.972 140.601 439.82 139.923 440.668 140.093C441.516 140.093 442.195 140.941 442.025 141.958Z" fill="#E9E9E9" stroke="#212629" stroke-width="0.5" stroke-miterlimit="10"/>
<path d="M443.723 206.755C443.553 207.603 442.705 208.282 441.857 208.112C441.009 207.943 440.33 207.095 440.5 206.246C440.669 205.398 441.518 204.72 442.366 204.889C443.214 205.059 443.892 205.907 443.723 206.755Z" fill="#E9E9E9" stroke="#212629" stroke-width="0.5" stroke-miterlimit="10"/>
<path d="M353.48 97.0078C353.311 97.8559 352.463 98.5344 351.615 98.3648C350.766 98.1951 350.088 97.347 350.258 96.4989C350.427 95.6508 351.275 94.9723 352.123 95.1419C352.972 95.3115 353.48 96.1596 353.48 97.0078Z" fill="#E9E9E9" stroke="#212629" stroke-width="0.5" stroke-miterlimit="10"/>
<mask id="mask4_203_18985" style="mask-type:alpha" maskUnits="userSpaceOnUse" x="379" y="230" width="50" height="7">
<path d="M427.268 233.895L381.299 236.44C380.282 236.44 379.434 235.761 379.434 234.743C379.434 233.726 380.112 232.877 381.13 232.877L427.098 230.333C428.116 230.333 428.964 231.012 428.964 232.029C428.964 233.047 428.286 233.895 427.268 233.895Z" fill="url(#paint4_linear_203_18985)"/>
</mask>
<g mask="url(#mask4_203_18985)">
<path opacity="0.85" d="M427.27 233.895L381.301 236.44C380.284 236.44 379.436 235.761 379.436 234.743C379.436 233.726 380.114 232.877 381.132 232.877L427.1 230.333C428.118 230.333 428.966 231.012 428.966 232.029C428.966 233.047 428.288 233.895 427.27 233.895Z" fill="#E9E9E9" stroke="#212629" stroke-width="0.5" stroke-miterlimit="10"/>
</g>
<mask id="mask5_203_18985" style="mask-type:alpha" maskUnits="userSpaceOnUse" x="400" y="146" width="51" height="10">
<path d="M448.135 155.02L402.336 150.44C401.318 150.271 400.64 149.422 400.809 148.405C400.979 147.387 401.827 146.708 402.845 146.878L448.643 151.458C449.661 151.628 450.34 152.476 450.17 153.493C450 154.342 449.152 155.02 448.135 155.02Z" fill="url(#paint5_linear_203_18985)"/>
</mask>
<g mask="url(#mask5_203_18985)">
<path opacity="0.85" d="M448.134 155.02L402.335 150.44C401.317 150.271 400.639 149.422 400.808 148.405C400.978 147.387 401.826 146.708 402.844 146.878L448.642 151.458C449.66 151.628 450.339 152.476 450.169 153.493C449.999 154.342 449.151 155.02 448.134 155.02Z" fill="#E9E9E9" stroke="#212629" stroke-width="0.5" stroke-miterlimit="10"/>
<path d="M340.932 162.144L396.569 129.916L460.517 137.379L397.078 132.46L340.932 162.144Z" fill="#E9E9E9" stroke="#212629" stroke-width="0.5" stroke-miterlimit="10"/>
<path d="M485.788 407.591C484.092 386.727 480.869 366.033 476.968 345.509C474.932 335.161 472.727 324.984 470.183 314.806C467.639 304.629 464.925 294.621 461.871 284.613C455.765 264.597 448.301 245.09 438.972 226.432C436.597 221.852 434.222 217.272 431.678 212.522C429.134 207.943 426.759 203.193 424.384 198.613C419.635 189.284 414.885 179.954 410.475 170.455C401.654 151.457 393.682 131.95 387.236 112.104C384.013 102.096 381.299 91.9189 379.094 81.7414C376.889 71.3943 375.193 61.0471 374.175 50.5304C373.157 40.0136 372.988 29.4969 373.497 18.9801C373.666 16.4357 373.836 13.7217 374.005 11.1774L374.345 7.27597L374.854 3.37459L375.023 1.33909V0.830218C375.023 0.490968 375.193 0.151717 375.363 -0.017908C375.702 -0.696409 376.38 -1.03566 376.72 -1.20528C377.737 -1.54453 378.416 -1.54453 379.094 -1.37491C379.773 -1.37491 380.451 -1.20528 381.13 -1.03566C383.844 -0.526783 386.388 0.321342 388.763 1.33909C398.601 5.07085 408.1 9.65072 417.43 14.2306C426.759 18.8105 436.088 23.7296 445.248 28.8184L445.587 28.988L445.757 29.4969C448.98 44.4239 451.694 59.5205 453.899 74.7868C456.104 89.8834 457.8 105.15 458.988 120.416C459.497 128.049 460.005 135.682 460.175 143.315C460.345 150.948 460.514 158.582 460.345 166.215C460.175 173.848 459.836 181.481 459.157 189.114C458.479 196.747 457.461 204.38 456.274 211.844C457.461 204.211 458.309 196.747 458.818 189.114C459.327 181.481 459.666 173.848 459.666 166.215C459.666 158.582 459.497 150.948 459.157 143.315C458.818 135.682 458.309 128.049 457.631 120.416C456.274 105.15 454.408 90.053 452.203 74.9564C449.828 59.8598 447.114 44.7631 443.721 30.0057L444.23 30.6842C435.071 25.7651 425.741 21.0156 416.412 16.4357C407.082 11.8559 397.583 7.27597 387.915 3.71384C385.54 2.86572 382.996 2.01759 380.621 1.50872C379.942 1.33909 379.434 1.33909 378.755 1.33909C378.246 1.33909 377.568 1.33909 377.398 1.50872C377.228 1.50872 377.228 1.67834 377.228 1.50872V2.01759L377.059 3.88347L376.55 7.78485V11.347C376.211 13.8914 376.211 16.6054 376.041 19.1497C375.532 29.4969 375.871 40.0136 376.889 50.3608C378.925 71.055 383.505 91.5797 389.781 111.426C396.057 131.272 404.029 150.609 412.68 169.607C417.09 179.106 421.67 188.436 426.42 197.765C431.169 207.094 436.258 216.254 440.838 225.584C450.167 244.412 457.291 264.258 463.398 284.274C466.451 294.282 469.165 304.459 471.54 314.637C473.915 324.814 475.95 335.161 477.816 345.339C481.548 366.033 484.262 386.727 485.788 407.591Z" fill="#E9E9E9" stroke="#212629" stroke-width="0.5" stroke-miterlimit="10"/>
<path d="M347.037 80.8936C345.849 84.4557 345.001 88.1874 344.323 91.9192C343.474 95.6509 342.966 99.3827 342.457 103.114C341.439 110.578 340.76 118.041 340.591 125.675C340.421 133.138 340.591 140.771 341.1 148.235C341.439 151.966 341.778 155.698 342.287 159.43C342.966 163.162 343.474 166.893 344.153 170.456C344.831 174.187 345.849 177.749 346.697 181.481C347.715 185.043 348.733 188.775 349.92 192.337C352.125 199.462 355.009 206.416 358.232 213.201C364.678 226.771 372.65 239.493 381.979 251.367C384.354 254.25 386.729 257.134 389.104 260.018L396.397 268.669C401.317 274.436 405.896 280.542 410.476 286.479C419.297 298.692 427.948 311.244 435.411 324.306C442.875 337.367 449.829 350.937 455.597 364.846C458.48 371.801 461.194 378.925 463.569 386.049C465.944 393.173 468.149 400.467 469.676 407.931C467.81 400.637 465.605 393.513 463.06 386.388C460.516 379.264 457.632 372.31 454.579 365.525C448.472 351.785 441.518 338.384 433.715 325.493C426.082 312.601 417.601 300.049 408.61 288.006C404.031 282.069 399.451 275.962 394.532 270.365L387.238 261.714C384.863 258.83 382.319 255.947 379.944 252.893C370.614 241.02 362.642 227.959 356.196 214.219C353.143 207.264 350.259 200.31 347.885 193.016C346.697 189.454 345.68 185.722 344.662 182.16C343.814 178.428 342.966 174.696 342.287 170.964C341.609 167.233 341.1 163.501 340.591 159.769C340.252 156.037 339.743 152.306 339.573 148.404C339.064 140.771 339.064 133.308 339.403 125.675C339.743 118.041 340.591 110.578 341.948 103.114C342.796 95.3117 344.492 88.0178 347.037 80.8936Z" fill="#E9E9E9" stroke="#212629" stroke-width="0.5" stroke-miterlimit="10"/>
</g>
<mask id="mask6_203_18985" style="mask-type:alpha" maskUnits="userSpaceOnUse" x="532" y="158" width="63" height="251">
<path d="M540.746 408.609L532.604 158.243L578.403 167.402L594.518 408.609H540.746Z" fill="url(#paint6_linear_203_18985)"/>
</mask>
<g mask="url(#mask6_203_18985)">
<path d="M540.746 408.609L532.604 158.243L578.403 167.402L594.518 408.609H540.746Z" fill="#E9E9E9" stroke="#212629" stroke-width="0.5" stroke-miterlimit="10"/>
<path d="M537.696 370.274V364.676L552.114 363.659L556.525 371.122L537.696 370.274Z" fill="#E9E9E9" stroke="#212629" stroke-width="0.5" stroke-miterlimit="10"/>
<path d="M583.154 369.596L577.556 362.641L552.112 363.659L556.523 371.122L583.154 369.596Z" fill="#E9E9E9" stroke="#212629" stroke-width="0.5" stroke-miterlimit="10"/>
<path d="M553.979 370.274L584.511 368.578L620.641 426.589L578.235 426.25L553.979 370.274Z" fill="#E9E9E9" stroke="#212629" stroke-width="0.5" stroke-miterlimit="10"/>
<path d="M553.98 370.274H533.625L533.795 426.589L578.236 426.25L553.98 370.274Z" fill="#E9E9E9" stroke="#212629" stroke-width="0.5" stroke-miterlimit="10"/>
<path d="M562.799 426.59L513.269 298.523H480.361L527.008 426.59H562.799Z" fill="#E9E9E9" stroke="#212629" stroke-width="0.5" stroke-miterlimit="10"/>
<path d="M571.997 380.282C572.307 379.398 571.842 378.43 570.958 378.12C570.075 377.809 569.106 378.274 568.796 379.158C568.486 380.042 568.951 381.01 569.835 381.321C570.719 381.631 571.687 381.166 571.997 380.282Z" fill="#E9E9E9" stroke="#212629" stroke-width="0.5" stroke-miterlimit="10"/>
<path d="M573.826 379.942C573.657 380.79 572.808 381.469 571.96 381.299C571.112 381.13 570.434 380.282 570.603 379.433C570.773 378.585 571.621 377.907 572.469 378.076C573.317 378.246 573.826 379.094 573.826 379.942Z" fill="#E9E9E9" stroke="#212629" stroke-width="0.5" stroke-miterlimit="10"/>
<path d="M553.676 380.179C553.968 379.289 553.483 378.331 552.593 378.039C551.703 377.747 550.744 378.232 550.452 379.122C550.16 380.012 550.645 380.971 551.536 381.262C552.426 381.554 553.384 381.069 553.676 380.179Z" fill="#E9E9E9" stroke="#212629" stroke-width="0.5" stroke-miterlimit="10"/>
<path d="M587.228 379.942C587.058 380.79 586.21 381.469 585.362 381.299C584.514 381.13 583.835 380.282 584.005 379.433C584.174 378.585 585.022 377.907 585.871 378.076C586.888 378.246 587.397 379.094 587.228 379.942Z" fill="#E9E9E9" stroke="#212629" stroke-width="0.5" stroke-miterlimit="10"/>
</g>
<defs>
<linearGradient id="paint0_linear_203_18985" x1="235.63" y1="147.462" x2="267.698" y2="139.084" gradientUnits="userSpaceOnUse">
<stop/>
<stop offset="1" stop-color="white"/>
</linearGradient>
<linearGradient id="paint1_linear_203_18985" x1="532.84" y1="174.766" x2="565.262" y2="181.647" gradientUnits="userSpaceOnUse">
<stop/>
<stop offset="1" stop-color="white"/>
</linearGradient>
<linearGradient id="paint2_linear_203_18985" x1="495.61" y1="316.629" x2="528.743" y2="315.734" gradientUnits="userSpaceOnUse">
<stop/>
<stop offset="1" stop-color="white"/>
</linearGradient>
<linearGradient id="paint3_linear_203_18985" x1="539.636" y1="242.26" x2="572.534" y2="246.29" gradientUnits="userSpaceOnUse">
<stop/>
<stop offset="1" stop-color="white"/>
</linearGradient>
<linearGradient id="paint4_linear_203_18985" x1="379.428" y1="233.84" x2="428.868" y2="235.282" gradientUnits="userSpaceOnUse">
<stop/>
<stop offset="1" stop-color="white"/>
</linearGradient>
<linearGradient id="paint5_linear_203_18985" x1="400.843" y1="147.527" x2="449.463" y2="156.61" gradientUnits="userSpaceOnUse">
<stop/>
<stop offset="1" stop-color="white"/>
</linearGradient>
<linearGradient id="paint6_linear_203_18985" x1="563.535" y1="408.673" x2="563.535" y2="158.211" gradientUnits="userSpaceOnUse">
<stop stop-color="white"/>
<stop offset="1"/>
</linearGradient>
</defs>
</svg>
